<?xml version="1.0" encoding="UTF-8"?><svg id="_레이어_1" xmlns="http://www.w3.org/2000/svg" viewBox="0 0 100 31.81"><defs><style>.cls-1{fill:#0061fc;}</style></defs><path d="M6.25,7.23v6.27c0,.31,.25,.57,.57,.57h7.48c.34,0,.61,.3,.56,.64l-.64,4.59c-.04,.28-.28,.49-.56,.49H6.82c-.31,0-.57,.25-.57,.57v10.89c0,.31-.25,.57-.57,.57H.57c-.31,0-.57-.25-.57-.57V1.55c0-.31,.25-.57,.57-.57h15.56c.34,0,.61,.3,.56,.64l-.63,4.55c-.04,.28-.28,.49-.56,.49H6.82c-.31,0-.57,.25-.57,.57Z"/><path d="M20.34,.61L25.24,0c.34-.04,.64,.22,.64,.56V31.24c0,.31-.25,.57-.57,.57h-4.9c-.31,0-.57-.25-.57-.57V1.17c0-.29,.21-.53,.5-.56Z"/><path d="M50.18,11.49V30.76c0,.31-.25,.57-.57,.57h-4.66c-.35,0-.63-.28-.63-.63v-.13c0-.47-.54-.74-.91-.44-1.36,1.09-3.09,1.69-5.08,1.69-4.71,0-7.4-3.21-7.4-8.28V12.09c0-.29,.21-.53,.5-.56l4.86-.61c.34-.04,.64,.22,.64,.56v11.29c0,2.42,1.41,3.83,3.48,3.83,2.2,0,3.74-1.58,3.74-4.05V12.09c0-.29,.21-.53,.5-.56l4.9-.61c.34-.04,.64,.22,.64,.56Z"/><path d="M74.84,19.52v11.72c0,.31-.25,.57-.57,.57h-4.9c-.31,0-.57-.25-.57-.57v-10.97c0-2.47-1.45-3.88-3.57-3.88-2.25,0-3.83,1.58-3.83,4.09v10.75c0,.31-.25,.57-.57,.57h-4.86c-.31,0-.57-.25-.57-.57V12.62c0-.29,.21-.53,.5-.56l4.68-.57c.34-.04,.63,.22,.63,.56v.44c0,.47,.54,.74,.91,.44,1.37-1.09,3.14-1.69,5.17-1.69,4.76,0,7.53,3.21,7.53,8.28Z"/><path d="M90.02,11.98v3.71c0,.31-.25,.57-.57,.57h-4c-.35,0-.63,.28-.63,.63v6.9c0,1.76,.93,2.77,2.64,2.77,.28,0,.58-.03,.87-.08,.41-.07,.74,.31,.64,.71l-1.14,4.12c-.06,.22-.25,.39-.47,.41-.43,.05-.88,.08-1.35,.08-4.76,0-7.18-2.82-7.18-7.27V8.07c0-.24,.14-.46,.34-.57l4.73-2.4c.42-.21,.92,.09,.92,.56v5.13c0,.34,.28,.63,.63,.63h4c.31,0,.57,.25,.57,.57Z"/><path d="M94.37,12.06l4.9-.61c.34-.04,.64,.22,.64,.56V31.24c0,.31-.25,.57-.57,.57h-4.9c-.31,0-.57-.25-.57-.57V12.62c0-.29,.21-.53,.5-.56Z"/><path class="cls-1" d="M96.89,2.28h0c1.71,0,3.11,1.39,3.11,3.11h0c0,1.71-1.39,3.11-3.11,3.11h-3.11v-3.11c0-1.71,1.39-3.11,3.11-3.11Z"/></svg>